<svg width="48" height="48" viewBox="0 0 48 48" fill="none" xmlns="http://www.w3.org/2000/svg">
<rect width="48" height="48" rx="4" fill="#F9F9F9"/>
<path d="M8.97802 12.7396C8.20357 12.7422 7.43244 12.6343 6.68637 12.4188C6.47101 12.3728 6.27874 12.2482 6.14455 12.0676C6.01037 11.8869 5.94321 11.6623 5.9553 11.4346C5.87925 10.6556 6.08743 9.87534 6.53876 9.24764C6.7438 9.01316 6.96335 8.79278 7.19602 8.5879C7.29444 8.48948 7.37528 8.51865 7.47018 8.60977C7.65801 8.82091 7.88411 8.9916 8.13557 9.1121C8.38703 9.2326 8.65891 9.30055 8.9357 9.31206C9.21248 9.32357 9.48874 9.27841 9.74868 9.17918C10.0087 9.07994 10.2472 8.92857 10.4507 8.7337C10.4929 8.6936 10.5315 8.65351 10.5702 8.60977C10.5875 8.59181 10.6081 8.57756 10.6307 8.56783C10.6533 8.55811 10.6775 8.5531 10.702 8.5531C10.7265 8.5531 10.7507 8.55811 10.7733 8.56783C10.796 8.57756 10.8165 8.59181 10.8338 8.60977C11.1855 8.86068 11.478 9.19054 11.6898 9.57486C11.9015 9.95916 12.0271 10.388 12.057 10.8296V11.4274C12.075 11.6593 12.0101 11.89 11.8746 12.0756C11.7391 12.2611 11.5426 12.3885 11.3224 12.4334C10.5579 12.6447 9.76921 12.7477 8.97802 12.7396Z" fill="#255888"/>
<path d="M10.7812 7.08245C10.7812 7.4429 10.6781 7.79527 10.485 8.09498C10.2919 8.39468 10.0174 8.62828 9.6963 8.76622C9.37516 8.90416 9.02181 8.94025 8.68091 8.86993C8.34 8.79961 8.02687 8.62603 7.78109 8.37115C7.53532 8.11627 7.36794 7.79153 7.30013 7.438C7.23232 7.08447 7.26712 6.71803 7.40014 6.38501C7.53315 6.05199 7.7584 5.76736 8.0474 5.5671C8.3364 5.36684 8.67618 5.25995 9.02376 5.25995H9.04485C9.5073 5.2657 9.9489 5.46026 10.2739 5.80142C10.599 6.14258 10.7812 6.60286 10.7812 7.08245Z" fill="#255888"/>
<path d="M18.978 12.7396C18.2036 12.7422 17.4324 12.6343 16.6864 12.4188C16.471 12.3728 16.2787 12.2482 16.1445 12.0676C16.0104 11.8869 15.9432 11.6623 15.9553 11.4346C15.8793 10.6556 16.0874 9.87534 16.5388 9.24764C16.7438 9.01316 16.9634 8.79278 17.196 8.5879C17.2944 8.48948 17.3753 8.51865 17.4702 8.60977C17.658 8.82091 17.8841 8.9916 18.1356 9.1121C18.387 9.2326 18.6589 9.30055 18.9357 9.31206C19.2125 9.32357 19.4887 9.27841 19.7487 9.17918C20.0087 9.07994 20.2472 8.92857 20.4507 8.7337C20.4929 8.6936 20.5315 8.65351 20.5702 8.60977C20.5875 8.59181 20.6081 8.57756 20.6307 8.56783C20.6533 8.55811 20.6775 8.5531 20.702 8.5531C20.7265 8.5531 20.7507 8.55811 20.7733 8.56783C20.796 8.57756 20.8165 8.59181 20.8338 8.60977C21.1855 8.86068 21.478 9.19054 21.6898 9.57486C21.9015 9.95916 22.0271 10.388 22.057 10.8296V11.4274C22.075 11.6593 22.0101 11.89 21.8746 12.0756C21.7391 12.2611 21.5426 12.3885 21.3224 12.4334C20.5579 12.6447 19.7692 12.7477 18.978 12.7396Z" fill="#255888"/>
<path d="M20.7812 7.08245C20.7812 7.4429 20.6781 7.79527 20.485 8.09498C20.2919 8.39468 20.0174 8.62828 19.6963 8.76622C19.3752 8.90416 19.0218 8.94025 18.6809 8.86993C18.34 8.79961 18.0269 8.62603 17.7811 8.37115C17.5353 8.11627 17.3679 7.79153 17.3001 7.438C17.2323 7.08447 17.2671 6.71803 17.4001 6.38501C17.5331 6.05199 17.7584 5.76736 18.0474 5.5671C18.3364 5.36684 18.6762 5.25995 19.0238 5.25995H19.0448C19.5073 5.2657 19.9489 5.46026 20.2739 5.80142C20.599 6.14258 20.7812 6.60286 20.7812 7.08245Z" fill="#255888"/>
<path d="M28.978 12.7396C28.2036 12.7422 27.4324 12.6343 26.6864 12.4188C26.471 12.3728 26.2787 12.2482 26.1445 12.0676C26.0104 11.8869 25.9432 11.6623 25.9553 11.4346C25.8793 10.6556 26.0874 9.87534 26.5388 9.24764C26.7438 9.01316 26.9634 8.79278 27.196 8.5879C27.2944 8.48948 27.3753 8.51865 27.4702 8.60977C27.658 8.82091 27.8841 8.9916 28.1356 9.1121C28.387 9.2326 28.6589 9.30055 28.9357 9.31206C29.2125 9.32357 29.4887 9.27841 29.7487 9.17918C30.0087 9.07994 30.2472 8.92857 30.4507 8.7337C30.4929 8.6936 30.5315 8.65351 30.5702 8.60977C30.5875 8.59181 30.6081 8.57756 30.6307 8.56783C30.6533 8.55811 30.6775 8.5531 30.702 8.5531C30.7265 8.5531 30.7507 8.55811 30.7733 8.56783C30.796 8.57756 30.8165 8.59181 30.8338 8.60977C31.1855 8.86068 31.478 9.19054 31.6898 9.57486C31.9015 9.95916 32.0271 10.388 32.057 10.8296V11.4274C32.075 11.6593 32.0101 11.89 31.8746 12.0756C31.7391 12.2611 31.5426 12.3885 31.3224 12.4334C30.5579 12.6447 29.7692 12.7477 28.978 12.7396Z" fill="#255888"/>
<path d="M30.7812 7.08245C30.7812 7.4429 30.6781 7.79527 30.485 8.09498C30.2919 8.39468 30.0174 8.62828 29.6963 8.76622C29.3752 8.90416 29.0218 8.94025 28.6809 8.86993C28.34 8.79961 28.0269 8.62603 27.7811 8.37115C27.5353 8.11627 27.3679 7.79153 27.3001 7.438C27.2323 7.08447 27.2671 6.71803 27.4001 6.38501C27.5331 6.05199 27.7584 5.76736 28.0474 5.5671C28.3364 5.36684 28.6762 5.25995 29.0238 5.25995H29.0448C29.5073 5.2657 29.9489 5.46026 30.2739 5.80142C30.599 6.14258 30.7812 6.60286 30.7812 7.08245Z" fill="#255888"/>
<path d="M38.978 12.7396C38.2036 12.7422 37.4324 12.6343 36.6864 12.4188C36.471 12.3728 36.2787 12.2482 36.1445 12.0676C36.0104 11.8869 35.9432 11.6623 35.9553 11.4346C35.8793 10.6556 36.0874 9.87534 36.5388 9.24764C36.7438 9.01316 36.9634 8.79278 37.196 8.5879C37.2944 8.48948 37.3753 8.51865 37.4702 8.60977C37.658 8.82091 37.8841 8.9916 38.1356 9.1121C38.387 9.2326 38.6589 9.30055 38.9357 9.31206C39.2125 9.32357 39.4887 9.27841 39.7487 9.17918C40.0087 9.07994 40.2472 8.92857 40.4507 8.7337C40.4929 8.6936 40.5315 8.65351 40.5702 8.60977C40.5875 8.59181 40.6081 8.57756 40.6307 8.56783C40.6533 8.55811 40.6775 8.5531 40.702 8.5531C40.7265 8.5531 40.7507 8.55811 40.7733 8.56783C40.796 8.57756 40.8165 8.59181 40.8338 8.60977C41.1855 8.86068 41.478 9.19054 41.6898 9.57486C41.9015 9.95916 42.0271 10.388 42.057 10.8296V11.4274C42.075 11.6593 42.0101 11.89 41.8746 12.0756C41.7391 12.2611 41.5426 12.3885 41.3224 12.4334C40.5579 12.6447 39.7692 12.7477 38.978 12.7396Z" fill="#255888"/>
<path d="M40.7812 7.08245C40.7812 7.4429 40.6781 7.79527 40.485 8.09498C40.2919 8.39468 40.0174 8.62828 39.6963 8.76622C39.3752 8.90416 39.0218 8.94025 38.6809 8.86993C38.34 8.79961 38.0269 8.62603 37.7811 8.37115C37.5353 8.11627 37.3679 7.79153 37.3001 7.438C37.2323 7.08447 37.2671 6.71803 37.4001 6.38501C37.5331 6.05199 37.7584 5.76736 38.0474 5.5671C38.3364 5.36684 38.6762 5.25995 39.0238 5.25995H39.0448C39.5073 5.2657 39.9489 5.46026 40.2739 5.80142C40.599 6.14258 40.7812 6.60286 40.7812 7.08245Z" fill="#255888"/>
<path d="M8.97802 22.7396C8.20357 22.7422 7.43244 22.6343 6.68637 22.4188C6.47101 22.3728 6.27874 22.2482 6.14455 22.0676C6.01037 21.8869 5.94321 21.6623 5.9553 21.4346C5.87925 20.6556 6.08743 19.8753 6.53876 19.2476C6.7438 19.0132 6.96335 18.7928 7.19602 18.5879C7.29444 18.4895 7.37528 18.5186 7.47018 18.6098C7.65801 18.8209 7.88411 18.9916 8.13557 19.1121C8.38703 19.2326 8.65891 19.3005 8.9357 19.3121C9.21248 19.3236 9.48874 19.2784 9.74868 19.1792C10.0087 19.0799 10.2472 18.9286 10.4507 18.7337C10.4929 18.6936 10.5315 18.6535 10.5702 18.6098C10.5875 18.5918 10.6081 18.5776 10.6307 18.5678C10.6533 18.5581 10.6775 18.5531 10.702 18.5531C10.7265 18.5531 10.7507 18.5581 10.7733 18.5678C10.796 18.5776 10.8165 18.5918 10.8338 18.6098C11.1855 18.8607 11.478 19.1905 11.6898 19.5749C11.9015 19.9592 12.0271 20.388 12.057 20.8296V21.4274C12.075 21.6593 12.0101 21.89 11.8746 22.0756C11.7391 22.2611 11.5426 22.3885 11.3224 22.4334C10.5579 22.6447 9.76921 22.7477 8.97802 22.7396Z" fill="#255888"/>
<path d="M10.7812 17.0824C10.7812 17.4429 10.6781 17.7953 10.485 18.095C10.2919 18.3947 10.0174 18.6283 9.6963 18.7662C9.37516 18.9042 9.02181 18.9402 8.68091 18.8699C8.34 18.7996 8.02687 18.626 7.78109 18.3711C7.53532 18.1163 7.36794 17.7915 7.30013 17.438C7.23232 17.0845 7.26712 16.718 7.40014 16.385C7.53315 16.052 7.7584 15.7674 8.0474 15.5671C8.3364 15.3668 8.67618 15.2599 9.02376 15.2599H9.04485C9.5073 15.2657 9.9489 15.4603 10.2739 15.8014C10.599 16.1426 10.7812 16.6029 10.7812 17.0824Z" fill="#255888"/>
<path d="M18.978 22.7396C18.2036 22.7422 17.4324 22.6343 16.6864 22.4188C16.471 22.3728 16.2787 22.2482 16.1445 22.0676C16.0104 21.8869 15.9432 21.6623 15.9553 21.4346C15.8793 20.6556 16.0874 19.8753 16.5388 19.2476C16.7438 19.0132 16.9634 18.7928 17.196 18.5879C17.2944 18.4895 17.3753 18.5186 17.4702 18.6098C17.658 18.8209 17.8841 18.9916 18.1356 19.1121C18.387 19.2326 18.6589 19.3005 18.9357 19.3121C19.2125 19.3236 19.4887 19.2784 19.7487 19.1792C20.0087 19.0799 20.2472 18.9286 20.4507 18.7337C20.4929 18.6936 20.5315 18.6535 20.5702 18.6098C20.5875 18.5918 20.6081 18.5776 20.6307 18.5678C20.6533 18.5581 20.6775 18.5531 20.702 18.5531C20.7265 18.5531 20.7507 18.5581 20.7733 18.5678C20.796 18.5776 20.8165 18.5918 20.8338 18.6098C21.1855 18.8607 21.478 19.1905 21.6898 19.5749C21.9015 19.9592 22.0271 20.388 22.057 20.8296V21.4274C22.075 21.6593 22.0101 21.89 21.8746 22.0756C21.7391 22.2611 21.5426 22.3885 21.3224 22.4334C20.5579 22.6447 19.7692 22.7477 18.978 22.7396Z" fill="#255888"/>
<path d="M20.7812 17.0824C20.7812 17.4429 20.6781 17.7953 20.485 18.095C20.2919 18.3947 20.0174 18.6283 19.6963 18.7662C19.3752 18.9042 19.0218 18.9402 18.6809 18.8699C18.34 18.7996 18.0269 18.626 17.7811 18.3711C17.5353 18.1163 17.3679 17.7915 17.3001 17.438C17.2323 17.0845 17.2671 16.718 17.4001 16.385C17.5331 16.052 17.7584 15.7674 18.0474 15.5671C18.3364 15.3668 18.6762 15.2599 19.0238 15.2599H19.0448C19.5073 15.2657 19.9489 15.4603 20.2739 15.8014C20.599 16.1426 20.7812 16.6029 20.7812 17.0824Z" fill="#255888"/>
<path d="M28.978 22.7396C28.2036 22.7422 27.4324 22.6343 26.6864 22.4188C26.471 22.3728 26.2787 22.2482 26.1445 22.0676C26.0104 21.8869 25.9432 21.6623 25.9553 21.4346C25.8793 20.6556 26.0874 19.8753 26.5388 19.2476C26.7438 19.0132 26.9634 18.7928 27.196 18.5879C27.2944 18.4895 27.3753 18.5186 27.4702 18.6098C27.658 18.8209 27.8841 18.9916 28.1356 19.1121C28.387 19.2326 28.6589 19.3005 28.9357 19.3121C29.2125 19.3236 29.4887 19.2784 29.7487 19.1792C30.0087 19.0799 30.2472 18.9286 30.4507 18.7337C30.4929 18.6936 30.5315 18.6535 30.5702 18.6098C30.5875 18.5918 30.6081 18.5776 30.6307 18.5678C30.6533 18.5581 30.6775 18.5531 30.702 18.5531C30.7265 18.5531 30.7507 18.5581 30.7733 18.5678C30.796 18.5776 30.8165 18.5918 30.8338 18.6098C31.1855 18.8607 31.478 19.1905 31.6898 19.5749C31.9015 19.9592 32.0271 20.388 32.057 20.8296V21.4274C32.075 21.6593 32.0101 21.89 31.8746 22.0756C31.7391 22.2611 31.5426 22.3885 31.3224 22.4334C30.5579 22.6447 29.7692 22.7477 28.978 22.7396Z" fill="#CFD5DA"/>
<path d="M30.7812 17.0824C30.7812 17.4429 30.6781 17.7953 30.485 18.095C30.2919 18.3947 30.0174 18.6283 29.6963 18.7662C29.3752 18.9042 29.0218 18.9402 28.6809 18.8699C28.34 18.7996 28.0269 18.626 27.7811 18.3711C27.5353 18.1163 27.3679 17.7915 27.3001 17.438C27.2323 17.0845 27.2671 16.718 27.4001 16.385C27.5331 16.052 27.7584 15.7674 28.0474 15.5671C28.3364 15.3668 28.6762 15.2599 29.0238 15.2599H29.0448C29.5073 15.2657 29.9489 15.4603 30.2739 15.8014C30.599 16.1426 30.7812 16.6029 30.7812 17.0824Z" fill="#CFD5DA"/>
<path d="M38.978 22.7396C38.2036 22.7422 37.4324 22.6343 36.6864 22.4188C36.471 22.3728 36.2787 22.2482 36.1445 22.0676C36.0104 21.8869 35.9432 21.6623 35.9553 21.4346C35.8793 20.6556 36.0874 19.8753 36.5388 19.2476C36.7438 19.0132 36.9634 18.7928 37.196 18.5879C37.2944 18.4895 37.3753 18.5186 37.4702 18.6098C37.658 18.8209 37.8841 18.9916 38.1356 19.1121C38.387 19.2326 38.6589 19.3005 38.9357 19.3121C39.2125 19.3236 39.4887 19.2784 39.7487 19.1792C40.0087 19.0799 40.2472 18.9286 40.4507 18.7337C40.4929 18.6936 40.5315 18.6535 40.5702 18.6098C40.5875 18.5918 40.6081 18.5776 40.6307 18.5678C40.6533 18.5581 40.6775 18.5531 40.702 18.5531C40.7265 18.5531 40.7507 18.5581 40.7733 18.5678C40.796 18.5776 40.8165 18.5918 40.8338 18.6098C41.1855 18.8607 41.478 19.1905 41.6898 19.5749C41.9015 19.9592 42.0271 20.388 42.057 20.8296V21.4274C42.075 21.6593 42.0101 21.89 41.8746 22.0756C41.7391 22.2611 41.5426 22.3885 41.3224 22.4334C40.5579 22.6447 39.7692 22.7477 38.978 22.7396Z" fill="#CFD5DA"/>
<path d="M40.7812 17.0824C40.7812 17.4429 40.6781 17.7953 40.485 18.095C40.2919 18.3947 40.0174 18.6283 39.6963 18.7662C39.3752 18.9042 39.0218 18.9402 38.6809 18.8699C38.34 18.7996 38.0269 18.626 37.7811 18.3711C37.5353 18.1163 37.3679 17.7915 37.3001 17.438C37.2323 17.0845 37.2671 16.718 37.4001 16.385C37.5331 16.052 37.7584 15.7674 38.0474 15.5671C38.3364 15.3668 38.6762 15.2599 39.0238 15.2599H39.0448C39.5073 15.2657 39.9489 15.4603 40.2739 15.8014C40.599 16.1426 40.7812 16.6029 40.7812 17.0824Z" fill="#CFD5DA"/>
<path d="M8.97802 32.7396C8.20357 32.7422 7.43244 32.6343 6.68637 32.4188C6.47101 32.3728 6.27874 32.2482 6.14455 32.0676C6.01037 31.8869 5.94321 31.6623 5.9553 31.4346C5.87925 30.6556 6.08743 29.8753 6.53876 29.2476C6.7438 29.0132 6.96335 28.7928 7.19602 28.5879C7.29444 28.4895 7.37528 28.5186 7.47018 28.6098C7.65801 28.8209 7.88411 28.9916 8.13557 29.1121C8.38703 29.2326 8.65891 29.3005 8.9357 29.3121C9.21248 29.3236 9.48874 29.2784 9.74868 29.1792C10.0087 29.0799 10.2472 28.9286 10.4507 28.7337C10.4929 28.6936 10.5315 28.6535 10.5702 28.6098C10.5875 28.5918 10.6081 28.5776 10.6307 28.5678C10.6533 28.5581 10.6775 28.5531 10.702 28.5531C10.7265 28.5531 10.7507 28.5581 10.7733 28.5678C10.796 28.5776 10.8165 28.5918 10.8338 28.6098C11.1855 28.8607 11.478 29.1905 11.6898 29.5749C11.9015 29.9592 12.0271 30.388 12.057 30.8296V31.4274C12.075 31.6593 12.0101 31.89 11.8746 32.0756C11.7391 32.2611 11.5426 32.3885 11.3224 32.4334C10.5579 32.6447 9.76921 32.7477 8.97802 32.7396Z" fill="#D1481A"/>
<path d="M10.7812 27.0824C10.7812 27.4429 10.6781 27.7953 10.485 28.095C10.2919 28.3947 10.0174 28.6283 9.6963 28.7662C9.37516 28.9042 9.02181 28.9402 8.68091 28.8699C8.34 28.7996 8.02687 28.626 7.78109 28.3711C7.53532 28.1163 7.36794 27.7915 7.30013 27.438C7.23232 27.0845 7.26712 26.718 7.40014 26.385C7.53315 26.052 7.7584 25.7674 8.0474 25.5671C8.3364 25.3668 8.67618 25.2599 9.02376 25.2599H9.04485C9.5073 25.2657 9.9489 25.4603 10.2739 25.8014C10.599 26.1426 10.7812 26.6029 10.7812 27.0824Z" fill="#D1481A"/>
<path d="M18.978 32.7396C18.2036 32.7422 17.4324 32.6343 16.6864 32.4188C16.471 32.3728 16.2787 32.2482 16.1445 32.0676C16.0104 31.8869 15.9432 31.6623 15.9553 31.4346C15.8793 30.6556 16.0874 29.8753 16.5388 29.2476C16.7438 29.0132 16.9634 28.7928 17.196 28.5879C17.2944 28.4895 17.3753 28.5186 17.4702 28.6098C17.658 28.8209 17.8841 28.9916 18.1356 29.1121C18.387 29.2326 18.6589 29.3005 18.9357 29.3121C19.2125 29.3236 19.4887 29.2784 19.7487 29.1792C20.0087 29.0799 20.2472 28.9286 20.4507 28.7337C20.4929 28.6936 20.5315 28.6535 20.5702 28.6098C20.5875 28.5918 20.6081 28.5776 20.6307 28.5678C20.6533 28.5581 20.6775 28.5531 20.702 28.5531C20.7265 28.5531 20.7507 28.5581 20.7733 28.5678C20.796 28.5776 20.8165 28.5918 20.8338 28.6098C21.1855 28.8607 21.478 29.1905 21.6898 29.5749C21.9015 29.9592 22.0271 30.388 22.057 30.8296V31.4274C22.075 31.6593 22.0101 31.89 21.8746 32.0756C21.7391 32.2611 21.5426 32.3885 21.3224 32.4334C20.5579 32.6447 19.7692 32.7477 18.978 32.7396Z" fill="#D1481A"/>
<path d="M20.7812 27.0824C20.7812 27.4429 20.6781 27.7953 20.485 28.095C20.2919 28.3947 20.0174 28.6283 19.6963 28.7662C19.3752 28.9042 19.0218 28.9402 18.6809 28.8699C18.34 28.7996 18.0269 28.626 17.7811 28.3711C17.5353 28.1163 17.3679 27.7915 17.3001 27.438C17.2323 27.0845 17.2671 26.718 17.4001 26.385C17.5331 26.052 17.7584 25.7674 18.0474 25.5671C18.3364 25.3668 18.6762 25.2599 19.0238 25.2599H19.0448C19.5073 25.2657 19.9489 25.4603 20.2739 25.8014C20.599 26.1426 20.7812 26.6029 20.7812 27.0824Z" fill="#D1481A"/>
<path d="M28.978 32.7396C28.2036 32.7422 27.4324 32.6343 26.6864 32.4188C26.471 32.3728 26.2787 32.2482 26.1445 32.0676C26.0104 31.8869 25.9432 31.6623 25.9553 31.4346C25.8793 30.6556 26.0874 29.8753 26.5388 29.2476C26.7438 29.0132 26.9634 28.7928 27.196 28.5879C27.2944 28.4895 27.3753 28.5186 27.4702 28.6098C27.658 28.8209 27.8841 28.9916 28.1356 29.1121C28.387 29.2326 28.6589 29.3005 28.9357 29.3121C29.2125 29.3236 29.4887 29.2784 29.7487 29.1792C30.0087 29.0799 30.2472 28.9286 30.4507 28.7337C30.4929 28.6936 30.5315 28.6535 30.5702 28.6098C30.5875 28.5918 30.6081 28.5776 30.6307 28.5678C30.6533 28.5581 30.6775 28.5531 30.702 28.5531C30.7265 28.5531 30.7507 28.5581 30.7733 28.5678C30.796 28.5776 30.8165 28.5918 30.8338 28.6098C31.1855 28.8607 31.478 29.1905 31.6898 29.5749C31.9015 29.9592 32.0271 30.388 32.057 30.8296V31.4274C32.075 31.6593 32.0101 31.89 31.8746 32.0756C31.7391 32.2611 31.5426 32.3885 31.3224 32.4334C30.5579 32.6447 29.7692 32.7477 28.978 32.7396Z" fill="#D1481A"/>
<path d="M30.7812 27.0824C30.7812 27.4429 30.6781 27.7953 30.485 28.095C30.2919 28.3947 30.0174 28.6283 29.6963 28.7662C29.3752 28.9042 29.0218 28.9402 28.6809 28.8699C28.34 28.7996 28.0269 28.626 27.7811 28.3711C27.5353 28.1163 27.3679 27.7915 27.3001 27.438C27.2323 27.0845 27.2671 26.718 27.4001 26.385C27.5331 26.052 27.7584 25.7674 28.0474 25.5671C28.3364 25.3668 28.6762 25.2599 29.0238 25.2599H29.0448C29.5073 25.2657 29.9489 25.4603 30.2739 25.8014C30.599 26.1426 30.7812 26.6029 30.7812 27.0824Z" fill="#D1481A"/>
<path d="M38.978 32.7396C38.2036 32.7422 37.4324 32.6343 36.6864 32.4188C36.471 32.3728 36.2787 32.2482 36.1445 32.0676C36.0104 31.8869 35.9432 31.6623 35.9553 31.4346C35.8793 30.6556 36.0874 29.8753 36.5388 29.2476C36.7438 29.0132 36.9634 28.7928 37.196 28.5879C37.2944 28.4895 37.3753 28.5186 37.4702 28.6098C37.658 28.8209 37.8841 28.9916 38.1356 29.1121C38.387 29.2326 38.6589 29.3005 38.9357 29.3121C39.2125 29.3236 39.4887 29.2784 39.7487 29.1792C40.0087 29.0799 40.2472 28.9286 40.4507 28.7337C40.4929 28.6936 40.5315 28.6535 40.5702 28.6098C40.5875 28.5918 40.6081 28.5776 40.6307 28.5678C40.6533 28.5581 40.6775 28.5531 40.702 28.5531C40.7265 28.5531 40.7507 28.5581 40.7733 28.5678C40.796 28.5776 40.8165 28.5918 40.8338 28.6098C41.1855 28.8607 41.478 29.1905 41.6898 29.5749C41.9015 29.9592 42.0271 30.388 42.057 30.8296V31.4274C42.075 31.6593 42.0101 31.89 41.8746 32.0756C41.7391 32.2611 41.5426 32.3885 41.3224 32.4334C40.5579 32.6447 39.7692 32.7477 38.978 32.7396Z" fill="#D1481A"/>
<path d="M40.7812 27.0824C40.7812 27.4429 40.6781 27.7953 40.485 28.095C40.2919 28.3947 40.0174 28.6283 39.6963 28.7662C39.3752 28.9042 39.0218 28.9402 38.6809 28.8699C38.34 28.7996 38.0269 28.626 37.7811 28.3711C37.5353 28.1163 37.3679 27.7915 37.3001 27.438C37.2323 27.0845 37.2671 26.718 37.4001 26.385C37.5331 26.052 37.7584 25.7674 38.0474 25.5671C38.3364 25.3668 38.6762 25.2599 39.0238 25.2599H39.0448C39.5073 25.2657 39.9489 25.4603 40.2739 25.8014C40.599 26.1426 40.7812 26.6029 40.7812 27.0824Z" fill="#D1481A"/>
<path d="M8.97802 42.7396C8.20357 42.7422 7.43244 42.6343 6.68637 42.4188C6.47101 42.3728 6.27874 42.2482 6.14455 42.0676C6.01037 41.8869 5.94321 41.6623 5.9553 41.4346C5.87925 40.6556 6.08743 39.8753 6.53876 39.2476C6.7438 39.0132 6.96335 38.7928 7.19602 38.5879C7.29444 38.4895 7.37528 38.5186 7.47018 38.6098C7.65801 38.8209 7.88411 38.9916 8.13557 39.1121C8.38703 39.2326 8.65891 39.3005 8.9357 39.3121C9.21248 39.3236 9.48874 39.2784 9.74868 39.1792C10.0087 39.0799 10.2472 38.9286 10.4507 38.7337C10.4929 38.6936 10.5315 38.6535 10.5702 38.6098C10.5875 38.5918 10.6081 38.5776 10.6307 38.5678C10.6533 38.5581 10.6775 38.5531 10.702 38.5531C10.7265 38.5531 10.7507 38.5581 10.7733 38.5678C10.796 38.5776 10.8165 38.5918 10.8338 38.6098C11.1855 38.8607 11.478 39.1905 11.6898 39.5749C11.9015 39.9592 12.0271 40.388 12.057 40.8296V41.4274C12.075 41.6593 12.0101 41.89 11.8746 42.0756C11.7391 42.2611 11.5426 42.3885 11.3224 42.4334C10.5579 42.6447 9.76921 42.7477 8.97802 42.7396Z" fill="#D1481A"/>
<path d="M10.7812 37.0824C10.7812 37.4429 10.6781 37.7953 10.485 38.095C10.2919 38.3947 10.0174 38.6283 9.6963 38.7662C9.37516 38.9042 9.02181 38.9402 8.68091 38.8699C8.34 38.7996 8.02687 38.626 7.78109 38.3711C7.53532 38.1163 7.36794 37.7915 7.30013 37.438C7.23232 37.0845 7.26712 36.718 7.40014 36.385C7.53315 36.052 7.7584 35.7674 8.0474 35.5671C8.3364 35.3668 8.67618 35.2599 9.02376 35.2599H9.04485C9.5073 35.2657 9.9489 35.4603 10.2739 35.8014C10.599 36.1426 10.7812 36.6029 10.7812 37.0824Z" fill="#D1481A"/>
<path d="M18.978 42.7396C18.2036 42.7422 17.4324 42.6343 16.6864 42.4188C16.471 42.3728 16.2787 42.2482 16.1445 42.0676C16.0104 41.8869 15.9432 41.6623 15.9553 41.4346C15.8793 40.6556 16.0874 39.8753 16.5388 39.2476C16.7438 39.0132 16.9634 38.7928 17.196 38.5879C17.2944 38.4895 17.3753 38.5186 17.4702 38.6098C17.658 38.8209 17.8841 38.9916 18.1356 39.1121C18.387 39.2326 18.6589 39.3005 18.9357 39.3121C19.2125 39.3236 19.4887 39.2784 19.7487 39.1792C20.0087 39.0799 20.2472 38.9286 20.4507 38.7337C20.4929 38.6936 20.5315 38.6535 20.5702 38.6098C20.5875 38.5918 20.6081 38.5776 20.6307 38.5678C20.6533 38.5581 20.6775 38.5531 20.702 38.5531C20.7265 38.5531 20.7507 38.5581 20.7733 38.5678C20.796 38.5776 20.8165 38.5918 20.8338 38.6098C21.1855 38.8607 21.478 39.1905 21.6898 39.5749C21.9015 39.9592 22.0271 40.388 22.057 40.8296V41.4274C22.075 41.6593 22.0101 41.89 21.8746 42.0756C21.7391 42.2611 21.5426 42.3885 21.3224 42.4334C20.5579 42.6447 19.7692 42.7477 18.978 42.7396Z" fill="#CFD5DA"/>
<path d="M20.7812 37.0824C20.7812 37.4429 20.6781 37.7953 20.485 38.095C20.2919 38.3947 20.0174 38.6283 19.6963 38.7662C19.3752 38.9042 19.0218 38.9402 18.6809 38.8699C18.34 38.7996 18.0269 38.626 17.7811 38.3711C17.5353 38.1163 17.3679 37.7915 17.3001 37.438C17.2323 37.0845 17.2671 36.718 17.4001 36.385C17.5331 36.052 17.7584 35.7674 18.0474 35.5671C18.3364 35.3668 18.6762 35.2599 19.0238 35.2599H19.0448C19.5073 35.2657 19.9489 35.4603 20.2739 35.8014C20.599 36.1426 20.7812 36.6029 20.7812 37.0824Z" fill="#CFD5DA"/>
<path d="M28.978 42.7396C28.2036 42.7422 27.4324 42.6343 26.6864 42.4188C26.471 42.3728 26.2787 42.2482 26.1445 42.0676C26.0104 41.8869 25.9432 41.6623 25.9553 41.4346C25.8793 40.6556 26.0874 39.8753 26.5388 39.2476C26.7438 39.0132 26.9634 38.7928 27.196 38.5879C27.2944 38.4895 27.3753 38.5186 27.4702 38.6098C27.658 38.8209 27.8841 38.9916 28.1356 39.1121C28.387 39.2326 28.6589 39.3005 28.9357 39.3121C29.2125 39.3236 29.4887 39.2784 29.7487 39.1792C30.0087 39.0799 30.2472 38.9286 30.4507 38.7337C30.4929 38.6936 30.5315 38.6535 30.5702 38.6098C30.5875 38.5918 30.6081 38.5776 30.6307 38.5678C30.6533 38.5581 30.6775 38.5531 30.702 38.5531C30.7265 38.5531 30.7507 38.5581 30.7733 38.5678C30.796 38.5776 30.8165 38.5918 30.8338 38.6098C31.1855 38.8607 31.478 39.1905 31.6898 39.5749C31.9015 39.9592 32.0271 40.388 32.057 40.8296V41.4274C32.075 41.6593 32.0101 41.89 31.8746 42.0756C31.7391 42.2611 31.5426 42.3885 31.3224 42.4334C30.5579 42.6447 29.7692 42.7477 28.978 42.7396Z" fill="#CFD5DA"/>
<path d="M30.7812 37.0824C30.7812 37.4429 30.6781 37.7953 30.485 38.095C30.2919 38.3947 30.0174 38.6283 29.6963 38.7662C29.3752 38.9042 29.0218 38.9402 28.6809 38.8699C28.34 38.7996 28.0269 38.626 27.7811 38.3711C27.5353 38.1163 27.3679 37.7915 27.3001 37.438C27.2323 37.0845 27.2671 36.718 27.4001 36.385C27.5331 36.052 27.7584 35.7674 28.0474 35.5671C28.3364 35.3668 28.6762 35.2599 29.0238 35.2599H29.0448C29.5073 35.2657 29.9489 35.4603 30.2739 35.8014C30.599 36.1426 30.7812 36.6029 30.7812 37.0824Z" fill="#CFD5DA"/>
<path d="M38.978 42.7396C38.2036 42.7422 37.4324 42.6343 36.6864 42.4188C36.471 42.3728 36.2787 42.2482 36.1445 42.0676C36.0104 41.8869 35.9432 41.6623 35.9553 41.4346C35.8793 40.6556 36.0874 39.8753 36.5388 39.2476C36.7438 39.0132 36.9634 38.7928 37.196 38.5879C37.2944 38.4895 37.3753 38.5186 37.4702 38.6098C37.658 38.8209 37.8841 38.9916 38.1356 39.1121C38.387 39.2326 38.6589 39.3005 38.9357 39.3121C39.2125 39.3236 39.4887 39.2784 39.7487 39.1792C40.0087 39.0799 40.2472 38.9286 40.4507 38.7337C40.4929 38.6936 40.5315 38.6535 40.5702 38.6098C40.5875 38.5918 40.6081 38.5776 40.6307 38.5678C40.6533 38.5581 40.6775 38.5531 40.702 38.5531C40.7265 38.5531 40.7507 38.5581 40.7733 38.5678C40.796 38.5776 40.8165 38.5918 40.8338 38.6098C41.1855 38.8607 41.478 39.1905 41.6898 39.5749C41.9015 39.9592 42.0271 40.388 42.057 40.8296V41.4274C42.075 41.6593 42.0101 41.89 41.8746 42.0756C41.7391 42.2611 41.5426 42.3885 41.3224 42.4334C40.5579 42.6447 39.7692 42.7477 38.978 42.7396Z" fill="#CFD5DA"/>
<path d="M40.7812 37.0824C40.7812 37.4429 40.6781 37.7953 40.485 38.095C40.2919 38.3947 40.0174 38.6283 39.6963 38.7662C39.3752 38.9042 39.0218 38.9402 38.6809 38.8699C38.34 38.7996 38.0269 38.626 37.7811 38.3711C37.5353 38.1163 37.3679 37.7915 37.3001 37.438C37.2323 37.0845 37.2671 36.718 37.4001 36.385C37.5331 36.052 37.7584 35.7674 38.0474 35.5671C38.3364 35.3668 38.6762 35.2599 39.0238 35.2599H39.0448C39.5073 35.2657 39.9489 35.4603 40.2739 35.8014C40.599 36.1426 40.7812 36.6029 40.7812 37.0824Z" fill="#CFD5DA"/>
</svg>
