<svg width="40" height="40" viewBox="0 0 40 40" fill="none" xmlns="http://www.w3.org/2000/svg">
<rect width="40" height="40" rx="4" fill="#F9F9F9"/>
<path d="M12 16C9.8 16 8 14.2 8 12C8 9.8 9.8 8 12 8C14.2 8 16 9.8 16 12C16 14.2 14.2 16 12 16ZM12 10C10.9 10 10 10.9 10 12C10 13.1 10.9 14 12 14C13.1 14 14 13.1 14 12C14 10.9 13.1 10 12 10Z" fill="#393E41"/>
<path d="M24 24C21.8 24 20 22.2 20 20C20 17.8 21.8 16 24 16C26.2 16 28 17.8 28 20C28 22.2 26.2 24 24 24ZM24 18C22.9 18 22 18.9 22 20C22 21.1 22.9 22 24 22C25.1 22 26 21.1 26 20C26 18.9 25.1 18 24 18Z" fill="#393E41"/>
<path d="M31 13H15C14.4 13 14 12.6 14 12C14 11.4 14.4 11 15 11H31C31.6 11 32 11.4 32 12C32 12.6 31.6 13 31 13Z" fill="#393E41"/>
<path d="M31 21H27C26.4 21 26 20.6 26 20C26 19.4 26.4 19 27 19H31C31.6 19 32 19.4 32 20C32 20.6 31.6 21 31 21Z" fill="#393E41"/>
<path d="M21 21H9C8.4 21 8 20.6 8 20C8 19.4 8.4 19 9 19H21C21.6 19 22 19.4 22 20C22 20.6 21.6 21 21 21Z" fill="#393E41"/>
<path d="M18 32C15.8 32 14 30.2 14 28C14 25.8 15.8 24 18 24C20.2 24 22 25.8 22 28C22 30.2 20.2 32 18 32ZM18 26C16.9 26 16 26.9 16 28C16 29.1 16.9 30 18 30C19.1 30 20 29.1 20 28C20 26.9 19.1 26 18 26Z" fill="#393E41"/>
<path d="M31 29H21C20.4 29 20 28.6 20 28C20 27.4 20.4 27 21 27H31C31.6 27 32 27.4 32 28C32 28.6 31.6 29 31 29Z" fill="#393E41"/>
<path d="M15 29H9C8.4 29 8 28.6 8 28C8 27.4 8.4 27 9 27H15C15.6 27 16 27.4 16 28C16 28.6 15.6 29 15 29Z" fill="#393E41"/>
</svg>
